<svg width="183" height="131" viewBox="0 0 183 131" fill="none" xmlns="http://www.w3.org/2000/svg">
<g filter="url(#filter0_d_1004_41)">
<path d="M22.56 94.208C21.024 94.208 19.744 93.4827 18.72 92.032C17.7813 90.5813 17.056 88.96 16.544 87.168C16.1173 85.376 15.904 84.0107 15.904 83.072C15.904 81.6213 16.2453 79.7013 16.928 77.312C17.696 74.9227 18.592 72.448 19.616 69.888C20.64 67.2427 21.664 64.768 22.688 62.464C23.7973 60.0747 24.736 58.1973 25.504 56.832C23.712 55.552 22.2613 54.2293 21.152 52.864C20.0427 51.4133 19.488 49.6213 19.488 47.488C19.488 45.8667 19.9573 44.5867 20.896 43.648C21.8347 42.7093 23.2427 42.24 25.12 42.24C26.4 42.24 27.68 42.4533 28.96 42.88C30.24 43.2213 31.4347 43.6907 32.544 44.288C35.2747 40.1067 38.3893 35.6693 41.888 30.976C45.472 26.1973 48.9707 21.9733 52.384 18.304C52.8107 17.8773 53.3227 17.408 53.92 16.896C54.6027 16.384 55.328 16.128 56.096 16.128C56.864 16.128 57.248 16.5547 57.248 17.408C57.248 18.0053 57.0773 18.56 56.736 19.072C56.3947 19.584 56.0533 20.0533 55.712 20.48C54.6027 21.8453 53.4933 23.168 52.384 24.448C51.2747 25.728 50.1653 27.0507 49.056 28.416C46.6667 31.4027 44.3627 34.4747 42.144 37.632C40.0107 40.7893 37.9627 43.9893 36 47.232C37.8773 48.9387 39.6693 50.7307 41.376 52.608C43.168 54.4 44.9173 56.2347 46.624 58.112H50.464C55.7547 58.112 61.344 57.728 67.232 56.96C73.12 56.192 78.8373 54.912 84.384 53.12C90.016 51.2427 94.9653 48.7253 99.232 45.568C103.584 42.4107 106.784 38.4 108.832 33.536C109.941 30.72 110.496 28.032 110.496 25.472C110.496 21.2907 109.301 17.792 106.912 14.976C104.523 12.16 101.408 9.94133 97.568 8.32C93.728 6.61333 89.632 5.41866 85.28 4.736C80.928 3.968 76.7893 3.584 72.864 3.584H70.56C65.8667 3.584 60.7893 3.88266 55.328 4.48C49.952 4.992 44.576 5.93067 39.2 7.296C33.824 8.576 28.832 10.4107 24.224 12.8C19.616 15.104 15.8187 18.048 12.832 21.632C11.4667 23.168 10.3573 24.8747 9.504 26.752C8.65067 28.6293 8.224 30.5493 8.224 32.512C8.224 33.1093 8.30933 33.7067 8.48 34.304C8.736 34.9013 8.864 35.4987 8.864 36.096C8.864 36.608 8.65067 37.0347 8.224 37.376C7.79733 37.7173 7.28533 37.888 6.688 37.888C5.408 37.888 4.64 37.2907 4.384 36.096C4.128 34.816 4 33.8347 4 33.152C4 30.9333 4.42667 28.7573 5.28 26.624C6.21867 24.4907 7.37067 22.528 8.736 20.736C11.8933 16.5547 15.8613 13.1413 20.64 10.496C25.504 7.76533 30.7947 5.632 36.512 4.096C42.2293 2.56 48.032 1.49333 53.92 0.895996C59.808 0.298665 65.3547 0 70.56 0H72.736C77.2587 0 81.952 0.426666 86.816 1.28C91.7653 2.13333 96.3307 3.54133 100.512 5.504C104.779 7.46666 108.192 10.112 110.752 13.44C113.397 16.6827 114.72 20.6933 114.72 25.472C114.72 28.6293 114.08 31.7013 112.8 34.688C110.496 39.8933 107.04 44.2453 102.432 47.744C97.824 51.2427 92.5333 54.016 86.56 56.064C80.672 58.112 74.528 59.6053 68.128 60.544C61.8133 61.3973 55.7547 61.8667 49.952 61.952C50.8907 62.8907 51.7867 63.872 52.64 64.896C53.5787 65.8347 54.4747 66.816 55.328 67.84C56.352 69.0347 57.8453 70.7413 59.808 72.96C61.856 75.1787 64.0747 77.44 66.464 79.744C68.9387 81.9627 71.3707 83.8827 73.76 85.504C76.2347 87.04 78.4533 87.808 80.416 87.808C82.3787 87.808 83.9147 87.3813 85.024 86.528C86.2187 85.6747 87.2427 85.248 88.096 85.248C89.4613 85.248 90.144 85.888 90.144 87.168C90.144 87.936 89.4613 88.6613 88.096 89.344C86.816 90.0267 85.3653 90.5387 83.744 90.88C82.208 91.3067 81.056 91.52 80.288 91.52C78.24 91.52 76.1493 91.0507 74.016 90.112C72.3947 89.4293 70.56 88.2347 68.512 86.528C66.464 84.8213 64.3733 82.9013 62.24 80.768C60.192 78.6347 58.2293 76.5867 56.352 74.624C54.56 72.6613 53.1093 71.0827 52 69.888L44.576 61.824C42.3573 61.6533 40.48 61.5253 38.944 61.44C37.4933 61.3547 36.0427 61.1413 34.592 60.8C33.2267 60.4587 31.4773 59.8613 29.344 59.008C28.6613 60.3733 27.7653 62.1653 26.656 64.384C25.632 66.6027 24.608 68.9493 23.584 71.424C22.56 73.8987 21.7067 76.2453 21.024 78.464C20.3413 80.6827 20 82.4747 20 83.84C20 86.2293 20.384 87.8507 21.152 88.704C22.0053 89.6427 22.816 90.24 23.584 90.496C24.352 90.8373 24.736 91.392 24.736 92.16C24.736 92.672 24.5227 93.1413 24.096 93.568C23.7547 93.9947 23.2427 94.208 22.56 94.208ZM27.552 53.504C28.2347 52.3093 28.832 51.1573 29.344 50.048C29.9413 48.9387 30.5813 47.8293 31.264 46.72C29.8133 45.5253 28.2347 44.928 26.528 44.928C24.6507 44.928 23.712 45.696 23.712 47.232C23.712 48.4267 24.1387 49.5787 24.992 50.688C25.8453 51.712 26.6987 52.6507 27.552 53.504ZM41.376 57.856C40.1813 56.576 38.9867 55.296 37.792 54.016C36.6827 52.6507 35.5307 51.2853 34.336 49.92C33.7387 50.8587 33.184 51.84 32.672 52.864C32.16 53.888 31.648 54.8693 31.136 55.808C32.928 56.6613 34.592 57.1733 36.128 57.344C37.664 57.5147 39.4133 57.6853 41.376 57.856Z" fill="black"/>
<path d="M96.6398 122.652C95.6398 122.652 94.8398 122.285 94.2398 121.552C93.6398 120.819 93.1732 119.985 92.8398 119.052C92.5732 118.119 92.4398 117.319 92.4398 116.652C92.4398 114.852 92.9732 112.652 94.0398 110.052C95.1732 107.385 96.5398 104.619 98.1398 101.752C99.8065 98.8187 101.44 96.0853 103.04 93.552C104.64 90.952 105.973 88.852 107.04 87.252C106.84 86.7187 106.64 86.152 106.44 85.552C106.24 84.8853 106.14 84.2853 106.14 83.752C106.14 83.0853 106.34 82.552 106.74 82.152C107.807 81.2187 109.007 80.2853 110.34 79.352C111.74 78.352 113.04 77.452 114.24 76.652C115.173 75.3187 116.14 73.9853 117.14 72.652C118.14 71.252 119.14 69.9187 120.14 68.652C121.007 67.5187 121.973 66.0853 123.04 64.352C124.173 62.552 125.14 60.7187 125.94 58.852C126.807 56.9853 127.24 55.3853 127.24 54.052C127.24 52.1187 126.34 50.6853 124.54 49.752C122.74 48.8187 120.707 48.352 118.44 48.352C115.04 48.352 111.273 49.052 107.14 50.452C103.007 51.7853 98.8732 53.5853 94.7398 55.852C90.6732 58.052 86.9398 60.4853 83.5398 63.152C80.1398 65.8187 77.5065 68.452 75.6398 71.052C74.5065 72.652 73.3065 74.5853 72.0398 76.852C70.7732 79.1187 70.1398 81.2187 70.1398 83.152C70.1398 85.0853 70.9398 86.452 72.5398 87.252C74.2065 88.052 76.0065 88.452 77.9398 88.452C79.6732 88.452 81.2065 88.2187 82.5398 87.752C83.8732 87.2187 84.9732 86.7187 85.8398 86.252C86.7732 85.7187 87.3732 85.452 87.6398 85.452C88.0398 85.452 88.3732 85.6187 88.6398 85.952C88.9732 86.2187 89.1398 86.5187 89.1398 86.852C89.1398 87.1853 88.9398 87.552 88.5398 87.952C87.2732 89.0187 85.5732 89.852 83.4398 90.452C81.3065 90.9853 79.3732 91.252 77.6398 91.252C74.8398 91.252 72.3065 90.6187 70.0398 89.352C67.7732 88.0187 66.6398 86.0187 66.6398 83.352C66.6398 81.0853 67.3398 78.6853 68.7398 76.152C70.1398 73.6187 71.5065 71.4187 72.8398 69.552C74.9732 66.6187 77.8398 63.752 81.4398 60.952C85.0398 58.0853 89.0065 55.5187 93.3398 53.252C97.6732 50.9853 102.007 49.1853 106.34 47.852C110.74 46.452 114.773 45.752 118.44 45.752C120.573 45.752 122.607 46.052 124.54 46.652C126.473 47.252 128.04 48.1187 129.24 49.252C130.507 50.3853 131.14 51.7853 131.14 53.452C131.14 56.052 130.173 59.0187 128.24 62.352C126.307 65.6187 124.007 68.9853 121.34 72.452C124.007 70.9187 127.073 69.252 130.54 67.452C134.007 65.5853 137.64 63.752 141.44 61.952C145.307 60.0853 149.107 58.3853 152.84 56.852C156.573 55.252 160.04 53.9853 163.24 53.052C166.507 52.1187 169.24 51.652 171.44 51.652C173.573 51.652 175.24 52.352 176.44 53.752C177.64 55.152 178.24 56.7187 178.24 58.452C178.24 58.9853 178.107 59.6187 177.84 60.352C177.64 61.0853 177.107 61.452 176.24 61.452C175.84 61.452 175.44 61.3187 175.04 61.052C174.64 60.7853 174.44 60.452 174.44 60.052C174.44 59.7187 174.54 59.4187 174.74 59.152C174.94 58.8187 175.04 58.452 175.04 58.052C175.04 57.1187 174.707 56.3187 174.04 55.652C173.44 54.9187 172.573 54.552 171.44 54.552C168.907 54.552 165.74 55.152 161.94 56.352C158.207 57.552 154.173 59.1187 149.84 61.052C145.507 62.9187 141.207 64.952 136.94 67.152C132.74 69.352 128.873 71.4853 125.34 73.552C121.873 75.552 119.073 77.2187 116.94 78.552C115.94 79.8187 115.007 81.152 114.14 82.552C113.273 83.952 112.373 85.3187 111.44 86.652C111.44 88.1187 111.873 90.0187 112.74 92.352C113.673 94.6853 114.873 97.152 116.34 99.752C117.807 102.352 119.44 104.819 121.24 107.152C123.04 109.419 124.84 111.285 126.64 112.752C128.44 114.219 130.073 114.952 131.54 114.952C134.673 114.952 137.607 113.419 140.34 110.352C143.14 107.219 146.307 103.019 149.84 97.752C150.24 97.2853 150.64 97.052 151.04 97.052C151.507 97.052 151.873 97.252 152.14 97.652C152.407 98.052 152.407 98.552 152.14 99.152C151.54 100.352 150.54 102.019 149.14 104.152C147.74 106.285 146.04 108.452 144.04 110.652C142.107 112.852 140.007 114.719 137.74 116.252C135.54 117.785 133.34 118.552 131.14 118.552C129.007 118.552 126.807 117.619 124.54 115.752C122.273 113.885 120.107 111.519 118.04 108.652C116.04 105.719 114.24 102.652 112.64 99.452C111.107 96.252 109.94 93.2853 109.14 90.552L108.94 90.452C108.007 91.852 106.807 93.7187 105.34 96.052C103.873 98.3187 102.373 100.785 100.84 103.452C99.3732 106.052 98.1398 108.552 97.1398 110.952C96.1398 113.352 95.6398 115.319 95.6398 116.852C95.6398 118.052 95.8398 118.819 96.2398 119.152C96.7065 119.552 97.1398 119.819 97.5398 119.952C97.9398 120.152 98.1398 120.552 98.1398 121.152C98.1398 122.152 97.6398 122.652 96.6398 122.652Z" fill="black"/>
</g>
<defs>
<filter id="filter0_d_1004_41" x="0" y="0" width="182.24" height="130.652" filterUnits="userSpaceOnUse" color-interpolation-filters="sRGB">
<feFlood flood-opacity="0" result="BackgroundImageFix"/>
<feColorMatrix in="SourceAlpha" type="matrix" values="0 0 0 0 0 0 0 0 0 0 0 0 0 0 0 0 0 0 127 0" result="hardAlpha"/>
<feOffset dy="4"/>
<feGaussianBlur stdDeviation="2"/>
<feComposite in2="hardAlpha" operator="out"/>
<feColorMatrix type="matrix" values="0 0 0 0 0 0 0 0 0 0 0 0 0 0 0 0 0 0 0.25 0"/>
<feBlend mode="normal" in2="BackgroundImageFix" result="effect1_dropShadow_1004_41"/>
<feBlend mode="normal" in="SourceGraphic" in2="effect1_dropShadow_1004_41" result="shape"/>
</filter>
</defs>
</svg>
