<svg width="183" height="169" viewBox="0 0 183 169" fill="none" xmlns="http://www.w3.org/2000/svg">
<g filter="url(#filter0_f_1004_36)">
<circle cx="87.5" cy="84.5" r="79" stroke="#40B9F2" stroke-width="3"/>
</g>
<circle cx="87.5" cy="84.5" r="79" stroke="#40B9F2"/>
<g filter="url(#filter1_d_1004_36)">
<path d="M22.56 115.656C21.024 115.656 19.744 114.931 18.72 113.48C17.7813 112.029 17.056 110.408 16.544 108.616C16.1173 106.824 15.904 105.459 15.904 104.52C15.904 103.069 16.2453 101.149 16.928 98.76C17.696 96.3707 18.592 93.896 19.616 91.336C20.64 88.6907 21.664 86.216 22.688 83.912C23.7973 81.5227 24.736 79.6453 25.504 78.28C23.712 77 22.2613 75.6773 21.152 74.312C20.0427 72.8613 19.488 71.0693 19.488 68.936C19.488 67.3147 19.9573 66.0347 20.896 65.096C21.8347 64.1573 23.2427 63.688 25.12 63.688C26.4 63.688 27.68 63.9013 28.96 64.328C30.24 64.6693 31.4347 65.1387 32.544 65.736C35.2747 61.5547 38.3893 57.1173 41.888 52.424C45.472 47.6453 48.9707 43.4213 52.384 39.752C52.8107 39.3253 53.3227 38.856 53.92 38.344C54.6027 37.832 55.328 37.576 56.096 37.576C56.864 37.576 57.248 38.0027 57.248 38.856C57.248 39.4533 57.0773 40.008 56.736 40.52C56.3947 41.032 56.0533 41.5013 55.712 41.928C54.6027 43.2933 53.4933 44.616 52.384 45.896C51.2747 47.176 50.1653 48.4987 49.056 49.864C46.6667 52.8507 44.3627 55.9227 42.144 59.08C40.0107 62.2373 37.9627 65.4373 36 68.68C37.8773 70.3867 39.6693 72.1787 41.376 74.056C43.168 75.848 44.9173 77.6827 46.624 79.56H50.464C55.7547 79.56 61.344 79.176 67.232 78.408C73.12 77.64 78.8373 76.36 84.384 74.568C90.016 72.6907 94.9653 70.1733 99.232 67.016C103.584 63.8587 106.784 59.848 108.832 54.984C109.941 52.168 110.496 49.48 110.496 46.92C110.496 42.7387 109.301 39.24 106.912 36.424C104.523 33.608 101.408 31.3893 97.568 29.768C93.728 28.0613 89.632 26.8667 85.28 26.184C80.928 25.416 76.7893 25.032 72.864 25.032H70.56C65.8667 25.032 60.7893 25.3307 55.328 25.928C49.952 26.44 44.576 27.3787 39.2 28.744C33.824 30.024 28.832 31.8587 24.224 34.248C19.616 36.552 15.8187 39.496 12.832 43.08C11.4667 44.616 10.3573 46.3227 9.504 48.2C8.65067 50.0773 8.224 51.9973 8.224 53.96C8.224 54.5573 8.30933 55.1547 8.48 55.752C8.736 56.3493 8.864 56.9467 8.864 57.544C8.864 58.056 8.65067 58.4827 8.224 58.824C7.79733 59.1653 7.28533 59.336 6.688 59.336C5.408 59.336 4.64 58.7387 4.384 57.544C4.128 56.264 4 55.2827 4 54.6C4 52.3813 4.42667 50.2053 5.28 48.072C6.21867 45.9387 7.37067 43.976 8.736 42.184C11.8933 38.0027 15.8613 34.5893 20.64 31.944C25.504 29.2133 30.7947 27.08 36.512 25.544C42.2293 24.008 48.032 22.9413 53.92 22.344C59.808 21.7467 65.3547 21.448 70.56 21.448H72.736C77.2587 21.448 81.952 21.8747 86.816 22.728C91.7653 23.5813 96.3307 24.9893 100.512 26.952C104.779 28.9147 108.192 31.56 110.752 34.888C113.397 38.1307 114.72 42.1413 114.72 46.92C114.72 50.0773 114.08 53.1493 112.8 56.136C110.496 61.3413 107.04 65.6933 102.432 69.192C97.824 72.6907 92.5333 75.464 86.56 77.512C80.672 79.56 74.528 81.0533 68.128 81.992C61.8133 82.8453 55.7547 83.3147 49.952 83.4C50.8907 84.3387 51.7867 85.32 52.64 86.344C53.5787 87.2827 54.4747 88.264 55.328 89.288C56.352 90.4827 57.8453 92.1893 59.808 94.408C61.856 96.6267 64.0747 98.888 66.464 101.192C68.9387 103.411 71.3707 105.331 73.76 106.952C76.2347 108.488 78.4533 109.256 80.416 109.256C82.3787 109.256 83.9147 108.829 85.024 107.976C86.2187 107.123 87.2427 106.696 88.096 106.696C89.4613 106.696 90.144 107.336 90.144 108.616C90.144 109.384 89.4613 110.109 88.096 110.792C86.816 111.475 85.3653 111.987 83.744 112.328C82.208 112.755 81.056 112.968 80.288 112.968C78.24 112.968 76.1493 112.499 74.016 111.56C72.3947 110.877 70.56 109.683 68.512 107.976C66.464 106.269 64.3733 104.349 62.24 102.216C60.192 100.083 58.2293 98.0347 56.352 96.072C54.56 94.1093 53.1093 92.5307 52 91.336L44.576 83.272C42.3573 83.1013 40.48 82.9733 38.944 82.888C37.4933 82.8027 36.0427 82.5893 34.592 82.248C33.2267 81.9067 31.4773 81.3093 29.344 80.456C28.6613 81.8213 27.7653 83.6133 26.656 85.832C25.632 88.0507 24.608 90.3973 23.584 92.872C22.56 95.3467 21.7067 97.6933 21.024 99.912C20.3413 102.131 20 103.923 20 105.288C20 107.677 20.384 109.299 21.152 110.152C22.0053 111.091 22.816 111.688 23.584 111.944C24.352 112.285 24.736 112.84 24.736 113.608C24.736 114.12 24.5227 114.589 24.096 115.016C23.7547 115.443 23.2427 115.656 22.56 115.656ZM27.552 74.952C28.2347 73.7573 28.832 72.6053 29.344 71.496C29.9413 70.3867 30.5813 69.2773 31.264 68.168C29.8133 66.9733 28.2347 66.376 26.528 66.376C24.6507 66.376 23.712 67.144 23.712 68.68C23.712 69.8747 24.1387 71.0267 24.992 72.136C25.8453 73.16 26.6987 74.0987 27.552 74.952ZM41.376 79.304C40.1813 78.024 38.9867 76.744 37.792 75.464C36.6827 74.0987 35.5307 72.7333 34.336 71.368C33.7387 72.3067 33.184 73.288 32.672 74.312C32.16 75.336 31.648 76.3173 31.136 77.256C32.928 78.1093 34.592 78.6213 36.128 78.792C37.664 78.9627 39.4133 79.1333 41.376 79.304Z" fill="black"/>
<path d="M96.6398 144.1C95.6398 144.1 94.8398 143.733 94.2398 143C93.6398 142.267 93.1732 141.433 92.8398 140.5C92.5732 139.567 92.4398 138.767 92.4398 138.1C92.4398 136.3 92.9732 134.1 94.0398 131.5C95.1732 128.833 96.5398 126.067 98.1398 123.2C99.8065 120.267 101.44 117.533 103.04 115C104.64 112.4 105.973 110.3 107.04 108.7C106.84 108.167 106.64 107.6 106.44 107C106.24 106.333 106.14 105.733 106.14 105.2C106.14 104.533 106.34 104 106.74 103.6C107.807 102.667 109.007 101.733 110.34 100.8C111.74 99.8 113.04 98.9 114.24 98.1C115.173 96.7667 116.14 95.4333 117.14 94.1C118.14 92.7 119.14 91.3667 120.14 90.1C121.007 88.9667 121.973 87.5333 123.04 85.8C124.173 84 125.14 82.1667 125.94 80.3C126.807 78.4333 127.24 76.8333 127.24 75.5C127.24 73.5667 126.34 72.1333 124.54 71.2C122.74 70.2667 120.707 69.8 118.44 69.8C115.04 69.8 111.273 70.5 107.14 71.9C103.007 73.2333 98.8732 75.0333 94.7398 77.3C90.6732 79.5 86.9398 81.9333 83.5398 84.6C80.1398 87.2667 77.5065 89.9 75.6398 92.5C74.5065 94.1 73.3065 96.0333 72.0398 98.3C70.7732 100.567 70.1398 102.667 70.1398 104.6C70.1398 106.533 70.9398 107.9 72.5398 108.7C74.2065 109.5 76.0065 109.9 77.9398 109.9C79.6732 109.9 81.2065 109.667 82.5398 109.2C83.8732 108.667 84.9732 108.167 85.8398 107.7C86.7732 107.167 87.3732 106.9 87.6398 106.9C88.0398 106.9 88.3732 107.067 88.6398 107.4C88.9732 107.667 89.1398 107.967 89.1398 108.3C89.1398 108.633 88.9398 109 88.5398 109.4C87.2732 110.467 85.5732 111.3 83.4398 111.9C81.3065 112.433 79.3732 112.7 77.6398 112.7C74.8398 112.7 72.3065 112.067 70.0398 110.8C67.7732 109.467 66.6398 107.467 66.6398 104.8C66.6398 102.533 67.3398 100.133 68.7398 97.6C70.1398 95.0667 71.5065 92.8667 72.8398 91C74.9732 88.0667 77.8398 85.2 81.4398 82.4C85.0398 79.5333 89.0065 76.9667 93.3398 74.7C97.6732 72.4333 102.007 70.6333 106.34 69.3C110.74 67.9 114.773 67.2 118.44 67.2C120.573 67.2 122.607 67.5 124.54 68.1C126.473 68.7 128.04 69.5667 129.24 70.7C130.507 71.8333 131.14 73.2333 131.14 74.9C131.14 77.5 130.173 80.4667 128.24 83.8C126.307 87.0667 124.007 90.4333 121.34 93.9C124.007 92.3667 127.073 90.7 130.54 88.9C134.007 87.0333 137.64 85.2 141.44 83.4C145.307 81.5333 149.107 79.8333 152.84 78.3C156.573 76.7 160.04 75.4333 163.24 74.5C166.507 73.5667 169.24 73.1 171.44 73.1C173.573 73.1 175.24 73.8 176.44 75.2C177.64 76.6 178.24 78.1667 178.24 79.9C178.24 80.4333 178.107 81.0667 177.84 81.8C177.64 82.5333 177.107 82.9 176.24 82.9C175.84 82.9 175.44 82.7667 175.04 82.5C174.64 82.2333 174.44 81.9 174.44 81.5C174.44 81.1667 174.54 80.8667 174.74 80.6C174.94 80.2667 175.04 79.9 175.04 79.5C175.04 78.5667 174.707 77.7667 174.04 77.1C173.44 76.3667 172.573 76 171.44 76C168.907 76 165.74 76.6 161.94 77.8C158.207 79 154.173 80.5667 149.84 82.5C145.507 84.3667 141.207 86.4 136.94 88.6C132.74 90.8 128.873 92.9333 125.34 95C121.873 97 119.073 98.6667 116.94 100C115.94 101.267 115.007 102.6 114.14 104C113.273 105.4 112.373 106.767 111.44 108.1C111.44 109.567 111.873 111.467 112.74 113.8C113.673 116.133 114.873 118.6 116.34 121.2C117.807 123.8 119.44 126.267 121.24 128.6C123.04 130.867 124.84 132.733 126.64 134.2C128.44 135.667 130.073 136.4 131.54 136.4C134.673 136.4 137.607 134.867 140.34 131.8C143.14 128.667 146.307 124.467 149.84 119.2C150.24 118.733 150.64 118.5 151.04 118.5C151.507 118.5 151.873 118.7 152.14 119.1C152.407 119.5 152.407 120 152.14 120.6C151.54 121.8 150.54 123.467 149.14 125.6C147.74 127.733 146.04 129.9 144.04 132.1C142.107 134.3 140.007 136.167 137.74 137.7C135.54 139.233 133.34 140 131.14 140C129.007 140 126.807 139.067 124.54 137.2C122.273 135.333 120.107 132.967 118.04 130.1C116.04 127.167 114.24 124.1 112.64 120.9C111.107 117.7 109.94 114.733 109.14 112L108.94 111.9C108.007 113.3 106.807 115.167 105.34 117.5C103.873 119.767 102.373 122.233 100.84 124.9C99.3732 127.5 98.1398 130 97.1398 132.4C96.1398 134.8 95.6398 136.767 95.6398 138.3C95.6398 139.5 95.8398 140.267 96.2398 140.6C96.7065 141 97.1398 141.267 97.5398 141.4C97.9398 141.6 98.1398 142 98.1398 142.6C98.1398 143.6 97.6398 144.1 96.6398 144.1Z" fill="black"/>
</g>
<defs>
<filter id="filter0_f_1004_36" x="3" y="0" width="169" height="169" filterUnits="userSpaceOnUse" color-interpolation-filters="sRGB">
<feFlood flood-opacity="0" result="BackgroundImageFix"/>
<feBlend mode="normal" in="SourceGraphic" in2="BackgroundImageFix" result="shape"/>
<feGaussianBlur stdDeviation="2" result="effect1_foregroundBlur_1004_36"/>
</filter>
<filter id="filter1_d_1004_36" x="0" y="21.448" width="182.24" height="130.652" filterUnits="userSpaceOnUse" color-interpolation-filters="sRGB">
<feFlood flood-opacity="0" result="BackgroundImageFix"/>
<feColorMatrix in="SourceAlpha" type="matrix" values="0 0 0 0 0 0 0 0 0 0 0 0 0 0 0 0 0 0 127 0" result="hardAlpha"/>
<feOffset dy="4"/>
<feGaussianBlur stdDeviation="2"/>
<feComposite in2="hardAlpha" operator="out"/>
<feColorMatrix type="matrix" values="0 0 0 0 0 0 0 0 0 0 0 0 0 0 0 0 0 0 0.25 0"/>
<feBlend mode="normal" in2="BackgroundImageFix" result="effect1_dropShadow_1004_36"/>
<feBlend mode="normal" in="SourceGraphic" in2="effect1_dropShadow_1004_36" result="shape"/>
</filter>
</defs>
</svg>
